<mxfile host="app.diagrams.net" modified="2021-04-22T15:16:32.922Z" agent="5.0 (Windows NT 10.0; Win64; x64) AppleWebKit/537.36 (KHTML, like Gecko) Chrome/89.0.4389.128 Safari/537.36" etag="Pw44l2Z3Kx5rxR2PoUp4" version="14.6.0" type="github">
  <diagram id="aLWUycC3fECyM3hJ5xh8" name="第 1 页">
    <mxGraphModel dx="813" dy="403" grid="0" gridSize="10" guides="1" tooltips="1" connect="1" arrows="1" fold="1" page="1" pageScale="1" pageWidth="827" pageHeight="1169" math="0" shadow="1">
      <root>
        <mxCell id="0" />
        <mxCell id="1" parent="0" />
        <mxCell id="nfJbj07PIKoyfQfKt1d7-36" style="edgeStyle=orthogonalEdgeStyle;rounded=0;orthogonalLoop=1;jettySize=auto;html=1;exitX=1;exitY=0.5;exitDx=0;exitDy=0;entryX=0;entryY=0.5;entryDx=0;entryDy=0;" edge="1" parent="1" source="nfJbj07PIKoyfQfKt1d7-33" target="nfJbj07PIKoyfQfKt1d7-34">
          <mxGeometry relative="1" as="geometry" />
        </mxCell>
        <mxCell id="nfJbj07PIKoyfQfKt1d7-33" value="CT" style="rounded=1;whiteSpace=wrap;html=1;fillColor=#d5e8d4;strokeColor=#82b366;" vertex="1" parent="1">
          <mxGeometry x="160" y="160" width="80" height="40" as="geometry" />
        </mxCell>
        <mxCell id="nfJbj07PIKoyfQfKt1d7-41" style="edgeStyle=orthogonalEdgeStyle;rounded=0;orthogonalLoop=1;jettySize=auto;html=1;exitX=1;exitY=0.5;exitDx=0;exitDy=0;entryX=0;entryY=0.5;entryDx=0;entryDy=0;" edge="1" parent="1" source="nfJbj07PIKoyfQfKt1d7-34" target="nfJbj07PIKoyfQfKt1d7-35">
          <mxGeometry relative="1" as="geometry" />
        </mxCell>
        <mxCell id="nfJbj07PIKoyfQfKt1d7-34" value="PU" style="rounded=1;whiteSpace=wrap;html=1;fillColor=#d5e8d4;strokeColor=#82b366;" vertex="1" parent="1">
          <mxGeometry x="280" y="160" width="80" height="40" as="geometry" />
        </mxCell>
        <mxCell id="nfJbj07PIKoyfQfKt1d7-35" value="OT" style="rounded=1;whiteSpace=wrap;html=1;fillColor=#d5e8d4;strokeColor=#82b366;" vertex="1" parent="1">
          <mxGeometry x="400" y="160" width="80" height="40" as="geometry" />
        </mxCell>
        <mxCell id="nfJbj07PIKoyfQfKt1d7-38" value="bTerminalID=1" style="text;html=1;align=center;verticalAlign=middle;resizable=0;points=[];autosize=1;strokeColor=none;" vertex="1" parent="1">
          <mxGeometry x="160" y="130" width="90" height="20" as="geometry" />
        </mxCell>
        <mxCell id="nfJbj07PIKoyfQfKt1d7-39" value="bUnitID=2" style="text;html=1;align=center;verticalAlign=middle;resizable=0;points=[];autosize=1;strokeColor=none;" vertex="1" parent="1">
          <mxGeometry x="285" y="130" width="70" height="20" as="geometry" />
        </mxCell>
        <mxCell id="nfJbj07PIKoyfQfKt1d7-40" value="bSourceID=1" style="text;html=1;align=center;verticalAlign=middle;resizable=0;points=[];autosize=1;strokeColor=none;" vertex="1" parent="1">
          <mxGeometry x="280" y="210" width="90" height="20" as="geometry" />
        </mxCell>
        <mxCell id="nfJbj07PIKoyfQfKt1d7-42" value="bTerminalID=3" style="text;html=1;align=center;verticalAlign=middle;resizable=0;points=[];autosize=1;strokeColor=none;" vertex="1" parent="1">
          <mxGeometry x="395" y="130" width="90" height="20" as="geometry" />
        </mxCell>
        <mxCell id="nfJbj07PIKoyfQfKt1d7-43" value="bSourceID=2" style="text;html=1;align=center;verticalAlign=middle;resizable=0;points=[];autosize=1;strokeColor=none;" vertex="1" parent="1">
          <mxGeometry x="390" y="210" width="90" height="20" as="geometry" />
        </mxCell>
      </root>
    </mxGraphModel>
  </diagram>
</mxfile>
